HIERARCHY
ROOT Hips
{
	OFFSET 0.00 0.00 0.00
	CHANNELS 6 Xposition Yposition Zposition Yrotation Xrotation Zrotation
	JOINT LHipJoint
	{
		OFFSET	0.0000	0.0000	0.0000
		CHANNELS 3 Yrotation Xrotation Zrotation
		JOINT LeftUpLeg
		{
			OFFSET	1.0138	-0.0809	-0.0827
			CHANNELS 3 Yrotation Xrotation Zrotation
			JOINT LeftLeg
			{
				OFFSET	0.4110	-3.9095	0.3245
				CHANNELS 3 Yrotation Xrotation Zrotation
				JOINT LeftFoot
				{
					OFFSET	0.3810	-4.0555	-0.1470
					CHANNELS 3 Yrotation Xrotation Zrotation
					JOINT LeftToeBase
					{
						OFFSET	0.1396	-0.4462	1.3079
						CHANNELS 3 Yrotation Xrotation Zrotation
						End Site
						{
							OFFSET 0.0161 -0.0248 0.1809
						}
					}
				}
			}
		}
	}
	JOINT LowerBack
	{
		OFFSET	0.0000	0.7977	-0.3873
		CHANNELS 3 Yrotation Xrotation Zrotation
		JOINT Spine
		{
			OFFSET	0.0000	1.4131	0.1715
			CHANNELS 3 Yrotation Xrotation Zrotation
			JOINT Spine1
			{
				OFFSET	0.0000	1.4392	-0.1032
				CHANNELS 3 Yrotation Xrotation Zrotation
				JOINT LeftShoulder
				{
					OFFSET	0.2274	1.0382	0.4032
					CHANNELS 3 Yrotation Xrotation Zrotation
					JOINT LeftArm
					{
						OFFSET	1.4730	-0.2267	-0.0231
						CHANNELS 3 Yrotation Xrotation Zrotation
						JOINT LeftForeArm
						{
							OFFSET	1.6131	-1.8059	0.0081
							CHANNELS 3 Yrotation Xrotation Zrotation
							JOINT LeftHand
							{
								OFFSET	1.2197	-1.2423	1.6317
								CHANNELS 3 Yrotation Xrotation Zrotation
								JOINT LThumb
								{
									OFFSET	0.0109	-0.0753	0.4387
									CHANNELS 3 Yrotation Xrotation Zrotation
									End Site
									{
										OFFSET -0.2090 -0.0868 0.2097
									}
								}
								JOINT LeftFingerBase
								{
									OFFSET	0.1071	-0.1567	0.2607
									CHANNELS 3 Yrotation Xrotation Zrotation
									JOINT LeftHandFinger1
									{
										OFFSET	0.1706	-0.2492	0.6830
										CHANNELS 3 Yrotation Xrotation Zrotation
										End Site
										{
											OFFSET 0.0335 -0.1507 0.2071
										}
									}
								}
							}
						}
					}
				}
				JOINT Neck
				{
					OFFSET	0.0000	1.7498	0.2381
					CHANNELS 3 Yrotation Xrotation Zrotation
					JOINT Neck1
					{
						OFFSET	0.0000	0.5043	0.1959
						CHANNELS 3 Yrotation Xrotation Zrotation
						JOINT Head
						{
							OFFSET	0.0000	0.5044	0.1959
							CHANNELS 3 Yrotation Xrotation Zrotation
							End Site
							{
								OFFSET 0.0000 1.4798 -0.0693
							}
						}
					}
				}
				JOINT RightShoulder
				{
					OFFSET	-0.2274	1.0382	0.4032
					CHANNELS 3 Yrotation Xrotation Zrotation
					JOINT RightArm
					{
						OFFSET	-1.4730	-0.2267	-0.0231
						CHANNELS 3 Yrotation Xrotation Zrotation
						JOINT RightForeArm
						{
							OFFSET	-1.6131	-1.8059	0.0081
							CHANNELS 3 Yrotation Xrotation Zrotation
							JOINT RightHand
							{
								OFFSET	-1.2197	-1.2423	1.6317
								CHANNELS 3 Yrotation Xrotation Zrotation
								JOINT RThumb
								{
									OFFSET	-0.0109	-0.0753	0.4387
									CHANNELS 3 Yrotation Xrotation Zrotation
									End Site
									{
										OFFSET 0.2090 -0.0868 0.2097
									}
								}
								JOINT RightFingerBase
								{
									OFFSET	-0.1071	-0.1567	0.2607
									CHANNELS 3 Yrotation Xrotation Zrotation
									JOINT RightHandFinger1
									{
										OFFSET	-0.1706	-0.2492	0.6830
										CHANNELS 3 Yrotation Xrotation Zrotation
										End Site
										{
											OFFSET -0.0335 -0.1507 0.2071
										}
									}
								}
							}
						}
					}
				}
			}
		}
	}
	JOINT RHipJoint
	{
		OFFSET	0.0000	0.0000	0.0000
		CHANNELS 3 Yrotation Xrotation Zrotation
		JOINT RightUpLeg
		{
			OFFSET	-1.0138	-0.0809	-0.0827
			CHANNELS 3 Yrotation Xrotation Zrotation
			JOINT RightLeg
			{
				OFFSET	-0.4110	-3.9095	0.3245
				CHANNELS 3 Yrotation Xrotation Zrotation
				JOINT RightFoot
				{
					OFFSET	-0.3810	-4.0555	-0.1470
					CHANNELS 3 Yrotation Xrotation Zrotation
					JOINT RightToeBase
					{
						OFFSET	-0.1396	-0.4462	1.3079
						CHANNELS 3 Yrotation Xrotation Zrotation
						End Site
						{
							OFFSET -0.0161 -0.0248 0.1809
						}
					}
				}
			}
		}
	}
}
MOTION
Frames: 12
Frame Time: 0.0333333
0.0174 8.6840 0.1062 -5.2339 -3.7377 -3.1923 0.0000 -0.0000 0.0000 15.4950 -7.5709 1.6790 3.2749 12.7357 4.7472 0.5398 -2.4485 -1.6438 0.0000 -4.9285 -0.0000 0.0000 -0.0000 0.0000 0.7253 1.8699 2.0194 1.5140 3.7200 3.6997 -17.4448 1.0012 -3.2145 -20.3141 0.6119 -31.7231 29.9308 30.2124 5.9892 23.2305 -3.4875 -25.4881 25.5061 -2.3862 12.1143 0.8522 13.7957 -3.6817 -6.4409 -3.9208 -2.4811 -0.0793 5.6263 0.4469 -0.1004 5.6215 0.4821 1.6280 -13.1676 -0.9079 15.3469 1.1603 5.6049 29.4912 7.2723 25.0816 -25.4576 26.7561 -3.9255 -16.5352 1.6761 15.2302 -24.4738 -3.2534 -10.2851 -1.2254 13.1427 3.2483 6.6723 -4.1923 2.5305 0.0000 -0.0000 0.0000 -10.2291 5.0623 8.7537 -10.2980 4.6930 -4.1916 -1.1514 -6.6271 -1.7381 0.0000 -7.2829 -0.0000 
0.0354 8.6817 0.0958 -5.9200 -3.1894 -3.1225 0.0000 -0.0000 0.0000 15.9820 -8.2050 1.6527 3.4266 12.9919 4.2536 0.5437 -2.6154 -1.2862 -0.0000 -4.9285 -0.0000 0.0000 -0.0000 0.0000 0.8420 1.9097 2.0528 1.7460 3.7958 3.7880 -17.5213 1.0957 -3.0583 -21.4544 0.0137 -30.7532 29.8113 30.1249 5.9311 23.3071 -3.1487 -25.3020 25.5061 -2.3861 12.1143 0.5213 14.3215 -3.9691 -6.4446 -3.9167 -2.4842 -0.0791 5.4298 0.3660 -0.1007 5.4259 0.4018 1.7419 -13.5022 -1.1712 15.3302 1.1327 5.5871 28.5890 7.7052 23.9414 -23.6433 25.2504 -3.1602 -17.9749 0.6797 13.5712 -24.4738 -3.2534 -10.2851 -0.8169 13.4241 3.6432 6.7111 -4.1523 2.5612 0.0000 -0.0000 0.0000 -10.2225 4.0586 8.6208 -10.4165 5.1654 -4.2070 -0.4508 -6.6147 -1.7210 -0.0000 -7.2867 0.0000 
0.0618 8.6840 0.0822 -6.8067 -2.5056 -3.0496 0.0000 -0.0000 0.0000 16.3969 -8.7485 1.5132 3.8780 12.8637 3.8660 0.5345 -2.6252 -0.9350 0.0000 -4.9285 0.0000 0.0000 -0.0000 0.0000 0.8984 1.9920 2.1081 1.8586 3.9582 3.8895 -17.5273 1.2271 -2.7241 -22.5328 -0.5912 -29.8171 29.7374 30.0706 5.8951 23.9091 -3.0339 -25.2944 25.5061 -2.3861 12.1143 -0.0245 15.2003 -4.4358 -6.4450 -3.9163 -2.4844 -0.0272 5.2219 0.3405 -0.0493 5.2184 0.3747 2.0726 -13.8552 -1.5735 15.2993 1.1161 5.4889 27.3626 8.2375 22.6339 -21.3473 23.2601 -2.2561 -19.6081 -1.0079 11.6248 -24.4738 -3.2534 -10.2851 -0.1123 13.9254 4.3028 6.7237 -4.1393 2.5712 0.0000 -0.0000 0.0000 -10.1281 3.1409 8.4794 -10.3662 5.0812 -4.1378 0.2539 -6.2468 -1.7144 0.0000 -7.2972 -0.0000 
0.0968 8.6872 0.0627 -7.9165 -1.6214 -2.9593 0.0000 -0.0000 0.0000 16.6975 -9.4021 1.2351 4.7082 12.5966 3.5980 0.5081 -2.5825 -0.5932 0.0000 -4.9285 -0.0000 0.0000 -0.0000 0.0000 0.8741 2.1108 2.1648 1.8092 4.1959 3.9893 -17.4419 1.4005 -2.1906 -23.5253 -1.1408 -28.9243 29.5991 29.9687 5.8281 25.0743 -3.2272 -25.0511 25.5061 -2.3861 12.1143 -0.5103 15.9688 -4.8465 -6.4381 -3.9238 -2.4788 0.0860 5.0171 0.4091 0.0637 5.0135 0.4392 2.6857 -14.2461 -2.1630 15.3111 1.0965 5.3489 25.9040 8.8126 21.1385 -18.8568 20.9964 -1.3617 -21.4475 -3.3560 9.6976 -24.4738 -3.2534 -10.2852 0.5992 14.4341 4.9742 6.7419 -4.1205 2.5856 0.0000 -0.0000 0.0000 -9.8344 1.9673 8.3010 -9.5695 5.0336 -3.9217 0.2312 -5.8094 -1.7295 -0.0000 -7.3124 0.0000 
0.1400 8.6854 0.0331 -9.3100 -0.4296 -2.8614 0.0000 -0.0000 0.0000 16.9406 -10.5349 0.8505 5.9218 12.6408 3.3858 0.4632 -2.6773 -0.2292 0.0000 -4.9285 0.0000 0.0000 -0.0000 0.0000 0.7769 2.2493 2.1976 1.6119 4.4751 4.0613 -17.2534 1.6097 -1.5043 -24.3548 -1.5650 -27.9978 29.2102 29.6802 5.6407 26.6119 -3.6614 -24.2343 25.5061 -2.3861 12.1143 -0.7664 16.2052 -5.0837 -6.4241 -3.9389 -2.4676 0.2629 4.8098 0.5843 0.2412 4.8054 0.6078 3.6084 -14.7088 -2.9412 15.3944 1.0629 5.2308 24.3682 9.3112 19.4505 -16.5054 18.7634 -0.6047 -23.4714 -6.0073 8.0457 -24.4738 -3.2534 -10.2851 1.2245 14.8813 5.6064 6.7730 -4.0884 2.6103 0.0000 -0.0000 0.0000 -9.1769 0.0673 8.2291 -8.9640 5.4685 -3.9744 0.2126 -5.4874 -1.5967 -0.0000 -7.3309 0.0000 
0.1924 8.6698 -0.0132 -11.0800 1.2100 -2.7623 0.0000 -0.0000 0.0000 17.1678 -12.6451 0.3755 7.5969 13.6265 3.2381 0.4000 -3.1819 0.1659 0.0000 -4.9285 -0.0000 0.0000 -0.0000 0.0000 0.6409 2.3915 2.1644 1.3356 4.7629 4.0448 -16.9642 1.8434 -0.7459 -24.8414 -1.8461 -26.8781 28.3217 29.0111 5.2192 28.4005 -4.0197 -23.3668 25.5061 -2.3861 12.1143 -1.2826 16.5389 -5.5818 -6.4184 -3.9452 -2.4630 0.5050 4.5151 0.8496 0.4860 4.5102 0.8646 4.8342 -15.2011 -3.8376 15.4855 1.0227 5.1759 22.9395 9.6124 17.6119 -14.4108 16.7005 -0.0057 -25.6358 -8.4625 6.5658 -24.4738 -3.2534 -10.2851 2.1292 15.4541 6.5265 6.7869 -4.0741 2.6213 0.0000 -0.0000 0.0000 -8.0967 -3.2045 8.2280 -8.6631 7.2567 -4.3478 0.2318 -5.6541 -1.3133 -0.0000 -7.3507 0.0000 
0.2570 8.6284 -0.0818 -13.2902 3.4104 -2.6716 0.0000 -0.0000 0.0000 17.3943 -16.2145 -0.1948 9.8641 16.1911 3.3295 0.3204 -4.3751 0.5385 0.0000 -4.9285 0.0000 0.0000 -0.0000 0.0000 0.4890 2.5449 2.0290 1.0260 5.0747 3.8379 -16.6404 2.0852 0.0427 -24.7803 -2.0493 -25.4064 26.7477 27.7903 4.4957 30.9813 -3.8438 -23.8728 25.5061 -2.3861 12.1143 -3.0490 18.6424 -7.1293 -6.4324 -3.9300 -2.4743 0.8208 3.9257 1.1908 0.8081 3.9205 1.1938 6.3480 -15.5303 -4.7232 15.4592 1.0046 5.1312 21.8233 9.6858 15.7792 -12.3723 14.6313 0.5060 -27.9907 -10.6062 4.8158 -24.4738 -3.2534 -10.2851 3.8466 16.2704 8.1175 6.7602 -4.1016 2.6001 0.0000 -0.0000 0.0000 -6.7378 -8.3028 8.1318 -8.5508 11.0114 -4.8319 0.3077 -6.5441 -1.0059 -0.0000 -7.3703 0.0000 
0.3339 8.5457 -0.1745 -15.8788 6.1799 -2.6096 0.0000 -0.0000 0.0000 17.7598 -21.5188 -0.8649 12.0120 20.8332 3.6913 0.8707 -6.4716 0.8077 0.0000 -4.9285 0.0000 0.0000 -0.0000 0.0000 0.2949 2.7545 1.7586 0.6309 5.5006 3.3596 -16.4928 2.2962 0.8436 -24.1988 -2.3040 -23.4416 24.6546 26.0970 3.5814 35.4216 -2.7386 -26.2362 25.5061 -2.3861 12.1143 -6.4157 22.9657 -9.8763 -6.4384 -3.9234 -2.4792 1.2186 2.7798 1.5985 1.2173 2.7751 1.5866 8.1114 -15.4761 -5.4576 15.2596 1.0381 4.9166 21.1861 9.5327 14.2944 -10.1343 12.2966 0.9837 -30.7158 -12.9127 2.4954 -24.4738 -3.2534 -10.2852 6.2825 16.9801 10.2102 6.7348 -4.1278 2.5800 0.0000 -0.0000 0.0000 -5.2794 -15.2785 7.7944 -8.4811 16.8350 -5.1286 0.4395 -8.1791 -0.8535 -0.0000 -7.3878 0.0000 
0.4172 8.4077 -0.2893 -18.6344 9.4020 -2.7018 0.0000 -0.0000 0.0000 18.5859 -28.4931 -1.5196 14.1789 27.4186 4.4384 1.5439 -9.3273 0.9571 0.0000 -4.9285 -0.0000 0.0000 -0.0000 0.0000 -0.0193 3.0876 1.3847 -0.0059 6.1751 2.6495 -16.8237 2.4227 1.5818 -23.4680 -2.8177 -20.7007 22.6940 24.4388 2.7774 41.9659 -1.0021 -27.9673 25.5061 -2.3861 12.1143 -9.7075 26.9139 -12.4120 -6.4030 -3.9618 -2.4506 1.7028 0.9715 2.0454 1.7165 0.9678 2.0184 10.0847 -15.1074 -6.0252 14.9699 1.1307 4.3069 20.9429 8.9706 13.6181 -7.7197 9.7141 1.3971 -33.7630 -15.9490 -0.1579 -24.4738 -3.2534 -10.2852 8.3701 17.1341 11.9033 6.8159 -4.0442 2.6443 0.0000 -0.0000 0.0000 -3.7761 -23.6993 7.3292 -8.4985 24.1715 -5.1602 0.6089 -10.3205 -0.9416 0.0000 -7.4016 0.0000 
0.4979 8.2057 -0.4225 -21.2929 12.8993 -3.1698 0.0000 -0.0000 0.0000 20.1286 -36.8689 -2.0879 16.3344 35.5606 5.6566 2.0044 -12.6938 1.0423 0.0000 -4.9285 -0.0000 0.0000 -0.0000 0.0000 -0.5315 3.5927 1.0150 -1.0465 7.1931 1.8957 -17.7757 2.4324 2.0724 -22.9768 -3.9538 -16.6257 21.4899 23.3864 2.3101 48.7613 -0.3673 -25.4202 25.5061 -2.3861 12.1143 -10.1249 27.4580 -12.7087 -6.4166 -3.9471 -2.4616 2.2735 -1.2595 2.4763 2.3017 -1.2609 2.4390 12.3000 -15.0021 -6.6863 14.7066 1.2619 3.2571 20.5604 7.6569 14.0454 -5.4455 7.2329 1.6866 -36.4378 -19.5082 -2.5160 -24.4738 -3.2534 -10.2851 8.9720 16.8200 12.2999 7.0743 -3.7792 2.8497 0.0000 -0.0000 0.0000 -2.2807 -33.0088 7.0276 -8.8593 32.3402 -5.1420 0.7865 -12.7065 -1.1826 -0.0000 -7.4101 0.0000 
0.5703 7.9372 -0.5671 -23.6255 16.5236 -4.1662 0.0000 -0.0000 0.0000 22.2612 -46.3386 -2.7222 19.6285 44.4804 8.3434 1.5533 -16.1331 1.0840 0.0000 -4.9285 0.0000 0.0000 -0.0000 0.0000 -1.2321 4.2538 0.7606 -2.4649 8.5200 1.3385 -19.1302 2.3305 2.0636 -22.8820 -6.2035 -10.6762 20.6794 22.6635 2.0072 52.4451 -2.0565 -18.4422 25.5061 -2.3861 12.1143 -7.7483 24.6027 -10.9255 -6.7027 -3.6381 -2.6921 2.8987 -3.4052 2.8347 2.9372 -3.4035 2.7943 14.8273 -16.0271 -7.8807 14.4842 1.3862 2.1362 19.1893 5.6714 15.3867 -3.6456 5.2438 1.8458 -37.9704 -22.3275 -3.8876 -24.4738 -3.2535 -10.2851 8.3587 16.6358 11.7532 7.4946 -3.3518 3.1847 0.0000 -0.0000 0.0000 -1.0877 -42.8042 7.1200 -9.8002 40.9337 -5.3271 0.9571 -15.2178 -1.4952 0.0000 -7.4114 -0.0000 
0.6352 7.6131 -0.7100 -25.4262 20.1893 -5.6184 0.0000 -0.0000 0.0000 24.5709 -56.4444 -3.7831 24.5701 53.2924 13.3133 0.8373 -19.2954 1.0087 0.0000 -4.9285 -0.0000 0.0000 -0.0000 0.0000 -1.9429 4.9727 0.6845 -3.8885 9.9621 1.1339 -20.4693 2.1427 1.4020 -23.7397 -9.7233 -2.9332 18.6138 20.7699 1.2795 50.5847 -4.9915 -10.9933 25.5061 -2.3861 12.1143 -4.9302 20.4937 -8.8076 -7.3437 -2.9543 -3.2105 3.4542 -5.0638 3.1098 3.4987 -5.0614 3.0651 17.5591 -18.7135 -9.8070 14.2957 1.4250 1.6747 16.3647 3.9324 16.9758 -2.6266 4.1104 1.9081 -38.8917 -22.8775 -3.3177 -24.4738 -3.2534 -10.2851 8.3281 17.3024 11.9015 8.0350 -2.8094 3.6169 0.0000 -0.0000 0.0000 -0.8668 -52.6949 7.7508 -11.1785 49.5896 -5.6353 1.1281 -17.7588 -1.8982 -0.0000 -7.4038 -0.0000 
